<svg width="32" height="32" fill="none" xmlns="http://www.w3.org/2000/svg"><path d="M12 18.333c-3.12 0-9.333 1.56-9.333 4.667v2.333h18.667V23c0-3.107-6.214-4.667-9.334-4.667zm-6.213 4.334C6.907 21.892 9.614 21 12 21c2.387 0 5.094.893 6.214 1.666H5.787zM12 16a4.672 4.672 0 004.667-4.667A4.672 4.672 0 0012 6.666a4.672 4.672 0 00-4.666 4.667A4.672 4.672 0 0012 16zm0-6.667c1.107 0 2 .893 2 2s-.893 2-2 2c-1.106 0-2-.893-2-2s.894-2 2-2zm9.387 9.08C22.934 19.533 24 21.026 24 23v2.333h5.334V23c0-2.694-4.667-4.227-7.947-4.587zM20 16a4.672 4.672 0 004.667-4.667A4.672 4.672 0 0020 6.666c-.72 0-1.386.174-2 .467a7.254 7.254 0 011.334 4.2c0 1.56-.494 3.014-1.334 4.2.614.293 1.28.467 2 .467z" fill="#fff"/></svg>