<svg width="32" height="32" fill="none" xmlns="http://www.w3.org/2000/svg"><path d="M29.334 6.907L14.12 22.133 8.467 16.48l1.88-1.88 3.773 3.773L27.454 5.04l1.88 1.867zm-2.947 6.72c.173.76.28 1.56.28 2.373 0 5.893-4.773 10.666-10.667 10.666-5.893 0-10.666-4.773-10.666-10.666 0-5.893 4.773-10.667 10.666-10.667 2.107 0 4.054.614 5.707 1.667l1.92-1.92A13.2 13.2 0 0016 2.667C8.64 2.667 2.667 8.64 2.667 16S8.64 29.333 16 29.333 29.334 23.36 29.334 16c0-1.587-.294-3.107-.8-4.52l-2.147 2.146z" fill="#FF6C00"/></svg>