<svg width="12" height="14" viewBox="0 0 12 14" fill="none" xmlns="http://www.w3.org/2000/svg">
<path d="M11.92 6.32432C11.8724 6.19413 11.801 6.07519 11.71 5.97432L6.71 0.67129C6.61676 0.572401 6.50607 0.493958 6.38425 0.440439C6.26243 0.386921 6.13186 0.359375 6 0.359375C5.7337 0.359375 5.4783 0.471574 5.29 0.67129C5.19676 0.77018 5.1228 0.887579 5.07234 1.01678C5.02188 1.14599 4.99591 1.28447 4.99591 1.42432C4.99591 1.70676 5.1017 1.97764 5.29 2.17735L8.59 5.66675L1 5.66675C0.734784 5.66675 0.48043 5.77849 0.292893 5.97739C0.105357 6.17629 3.1328e-08 6.44606 3.27758e-08 6.72735C3.42235e-08 7.00864 0.105357 7.27841 0.292893 7.47731C0.48043 7.67622 0.734784 7.78796 1 7.78796L8.59 7.78796L5.29 11.2774C5.19627 11.3759 5.12188 11.4933 5.07111 11.6225C5.02034 11.7517 4.9942 11.8904 4.9942 12.0304C4.9942 12.1704 5.02034 12.309 5.07111 12.4383C5.12188 12.5675 5.19627 12.6848 5.29 12.7834C5.38296 12.8828 5.49356 12.9617 5.61542 13.0156C5.73728 13.0694 5.86799 13.0971 6 13.0971C6.13201 13.0971 6.26272 13.0694 6.38458 13.0156C6.50644 12.9617 6.61704 12.8828 6.71 12.7834L11.71 7.48038C11.801 7.37951 11.8724 7.26057 11.92 7.13038C12.02 6.87217 12.02 6.58254 11.92 6.32432Z" fill="#FF6C00"/>
</svg>
