<svg width="12" height="14" fill="none" xmlns="http://www.w3.org/2000/svg"><path d="M11.92 6.324a1.072 1.072 0 00-.21-.35l-5-5.303a1.002 1.002 0 00-.326-.23A.955.955 0 006 .358a.976.976 0 00-.71.312 1.071 1.071 0 00-.218.346 1.121 1.121 0 00.218 1.16l3.3 3.49H1a.972.972 0 00-.707.31 1.094 1.094 0 00-.293.75c0 .282.105.551.293.75.187.2.442.311.707.311h7.59l-3.3 3.49a1.066 1.066 0 00-.219.345 1.116 1.116 0 00.219 1.16 1 1 0 00.325.233.951.951 0 001.095-.233l5-5.303c.091-.1.162-.22.21-.35.1-.258.1-.547 0-.806z" fill="#FF6C00"/></svg>