<svg width="100" height="31" fill="none" xmlns="http://www.w3.org/2000/svg"><g id="goit-logo" clip-path="url(#clip0)"><g id="logo with white text"><path id="Vector" d="M33.95 11.46c-2.037 0-3.573 1.634-3.573 3.803s1.552 3.802 3.61 3.802c2.035 0 3.571-1.633 3.571-3.802 0-2.17-1.551-3.803-3.609-3.803zM44.27.155H0v30.38h44.271l10.455-15.158L44.27.155zM23.15 20.073l-.103.088c-1.653 1.417-3.566 2.136-5.687 2.136-2.005 0-3.814-.709-5.093-1.996C11 19.025 10.3 17.235 10.3 15.263c0-1.895.71-3.659 2-4.965 1.31-1.334 3.098-2.068 5.044-2.068 2.194 0 3.711.538 5.246 1.857l.219.188-2.158 2.628-.224-.189c-.94-.793-1.763-1.254-3.18-1.254-1.878 0-3.406 1.706-3.406 3.803 0 2.225 1.518 3.84 3.609 3.84.92 0 1.738-.222 2.377-.643v-1.414h-2.85v-3.065h6.172v6.092zm15.925.158c-1.329 1.332-3.148 2.066-5.125 2.066-1.976 0-3.792-.728-5.106-2.052-1.295-1.303-2.008-3.07-2.008-4.982a7.008 7.008 0 01.518-2.691 6.94 6.94 0 011.508-2.278c1.329-1.332 3.149-2.062 5.125-2.062 1.977 0 3.792.729 5.106 2.052 1.295 1.303 2.008 3.07 2.008 4.982a7.01 7.01 0 01-.519 2.69 6.94 6.94 0 01-1.508 2.275z" fill="#000"/><path id="Vector_2" d="M10.573 15.288c0-3.64 2.801-6.622 6.632-6.622 2.277 0 3.65.622 4.97 1.756l-1.754 2.14c-.975-.823-1.843-1.299-3.306-1.299-2.024 0-3.632 1.811-3.632 4.025 0 2.341 1.59 4.06 3.83 4.06 1.012 0 1.916-.255 2.62-.767v-1.83h-2.8v-2.435h5.493v5.56c-1.301 1.117-3.09 2.031-5.403 2.031-3.94 0-6.65-2.799-6.65-6.62z" fill="#fff" stroke="#fff" stroke-miterlimit="10"/><path id="Vector_3" d="M27.352 15.377c0-3.64 2.84-6.622 6.74-6.622 3.901 0 6.705 2.945 6.705 6.622 0 3.64-2.84 6.622-6.74 6.622-3.901 0-6.705-2.945-6.705-6.622zm10.535 0c0-2.195-1.59-4.024-3.83-4.024-2.241 0-3.795 1.793-3.795 4.024 0 2.195 1.59 4.025 3.83 4.025 2.241 0 3.795-1.793 3.795-4.025z" fill="#fff" stroke="#fff" stroke-miterlimit="10"/><path id="Vector_4" d="M100.001 0H55.784v30.38h44.217V0z" fill="#FF6C00"/><path id="Vector_5" d="M69.406 9.105h2.783v12.806h-2.783V9.105z" fill="#fff" stroke="#fff" stroke-miterlimit="10"/><path id="Vector_6" d="M80.421 11.703h-3.849V9.105h10.48v2.598h-3.848v10.208H80.42V11.703z" fill="#fff" stroke="#fff" stroke-miterlimit="10"/></g></g><defs><clipPath id="clip0"><path fill="#fff" d="M0 0h100v30.534H0z"/></clipPath></defs></svg>