<svg width="32" height="32" fill="none" xmlns="http://www.w3.org/2000/svg"><path d="M28 10.666c-1.934 0-3.014 1.92-2.574 3.347l-4.733 4.747c-.4-.12-.987-.12-1.387 0l-3.4-3.4c.454-1.427-.626-3.36-2.573-3.36-1.933 0-3.027 1.92-2.573 3.36l-6.08 6.067c-1.427-.44-3.347.64-3.347 2.573 0 1.466 1.2 2.666 2.667 2.666 1.933 0 3.013-1.92 2.573-3.346l6.067-6.08c.4.12.986.12 1.386 0l3.4 3.4C16.973 22.067 18.053 24 20 24c1.933 0 3.026-1.92 2.573-3.36l4.747-4.734c1.426.44 3.346-.64 3.346-2.573 0-1.466-1.2-2.667-2.666-2.667z" fill="#FF6C00"/><path d="M20 12l1.253-2.76L24 8l-2.747-1.24L20 4l-1.227 2.76L16 8l2.773 1.24L20 12zM4.666 14.667L5.333 12 8 11.333l-2.667-.666L4.666 8 4 10.667l-2.667.666L4 12l.666 2.667z" fill="#FF6C00"/></svg>