<svg width="32" height="32" fill="none" xmlns="http://www.w3.org/2000/svg"><path d="M25.427 6.573l-1.88 1.88c1.92 1.934 3.12 4.6 3.12 7.547 0 5.893-4.773 10.666-10.667 10.666-5.893 0-10.666-4.773-10.666-10.666 0-5.44 4.066-9.92 9.333-10.573V8.12C10.88 8.76 8 12.04 8 16c0 4.413 3.587 8 8 8 4.414 0 8-3.587 8-8a7.926 7.926 0 00-2.346-5.653l-1.88 1.88A5.367 5.367 0 0121.334 16 5.332 5.332 0 0116 21.333 5.332 5.332 0 0110.667 16c0-2.48 1.707-4.547 4-5.147v2.854A2.64 2.64 0 0013.334 16c0 1.466 1.2 2.666 2.666 2.666 1.467 0 2.667-1.2 2.667-2.666 0-.987-.533-1.84-1.333-2.293V2.667H16C8.64 2.667 2.667 8.64 2.667 16S8.64 29.333 16 29.333 29.334 23.36 29.334 16c0-3.68-1.494-7.014-3.907-9.427z" fill="#FF6C00"/></svg>