<svg width="32" height="32" viewBox="0 0 32 32" fill="none" xmlns="http://www.w3.org/2000/svg">
<path d="M27.9997 10.6665C26.0663 10.6665 24.9863 12.5865 25.4263 14.0132L20.693 18.7598C20.293 18.6398 19.7063 18.6398 19.3063 18.7598L15.9063 15.3598C16.3597 13.9332 15.2797 11.9998 13.333 11.9998C11.3997 11.9998 10.3063 13.9198 10.7597 15.3598L4.67967 21.4265C3.25301 20.9865 1.33301 22.0665 1.33301 23.9998C1.33301 25.4665 2.53301 26.6665 3.99967 26.6665C5.93301 26.6665 7.01301 24.7465 6.57301 23.3198L12.6397 17.2398C13.0397 17.3598 13.6263 17.3598 14.0263 17.2398L17.4263 20.6398C16.973 22.0665 18.053 23.9998 19.9997 23.9998C21.933 23.9998 23.0263 22.0798 22.573 20.6398L27.3197 15.9065C28.7463 16.3465 30.6663 15.2665 30.6663 13.3332C30.6663 11.8665 29.4663 10.6665 27.9997 10.6665Z" fill="#FF6C00"/>
<path d="M20 12L21.2533 9.24L24 8L21.2533 6.76L20 4L18.7733 6.76L16 8L18.7733 9.24L20 12Z" fill="#FF6C00"/>
<path d="M4.66634 14.6667L5.33301 12L7.99967 11.3333L5.33301 10.6667L4.66634 8L3.99967 10.6667L1.33301 11.3333L3.99967 12L4.66634 14.6667Z" fill="#FF6C00"/>
</svg>
